<svg width="500" height="501" viewBox="0 0 500 501" fill="none" xmlns="http://www.w3.org/2000/svg">
<rect width="500" height="500" fill="white"/>
<path d="M434.408 500H64C64 498.177 64 476.756 65.6389 453.512C67.2778 430.268 77.9769 401.554 95.7985 382.412C113.62 363.27 162.972 356.433 169.827 352.331C176.681 348.229 176.681 342.76 180.794 335.924C184.084 330.455 191.304 329.087 194.503 329.087C194.96 325.441 195.599 316.508 194.503 309.945C193.132 301.741 186.277 293.537 183.535 288.068C180.794 282.599 184.906 270.293 179.423 267.559C173.939 264.824 164.343 236.111 161.601 225.172C158.859 214.234 161.601 211.499 162.972 208.765C164.069 206.577 167.999 210.588 169.827 212.867C167.999 202.384 164.343 175.949 164.343 154.073C164.343 126.727 172.568 125.359 179.423 117.155C186.277 108.952 194.503 108.952 201.357 108.952C208.211 108.952 223.023 96 223.023 96C223.023 96 223.023 103.482 228.775 100.748C234.962 97.8059 275.117 97.3673 275.117 97.3673C275.117 97.3673 272.643 100.748 279.498 103.482C286.352 106.217 295.948 103.482 315.141 121.257C334.333 139.032 328.85 145.869 328.85 173.215C328.85 200.561 324.737 212.866 328.85 210.132C332.962 207.397 336.024 207.759 331.592 232.009C327.211 255.974 317.883 257.987 313.77 268.926C309.657 279.864 302.803 300.374 300.061 309.945C297.868 317.602 299.147 327.72 300.061 331.822C300.061 331.822 304.448 329.634 311.028 331.822C317.609 334.009 322.909 347.318 324.737 353.699C337.989 356.433 372.17 366.551 402.878 385.147C433.586 403.742 436.693 469.464 434.408 500Z" fill="#071829" stroke="#071829" stroke-width="0.921807"/>
</svg>
