<svg width="318" height="318" viewBox="0 0 318 318" fill="none" xmlns="http://www.w3.org/2000/svg">
<path d="M206.848 219.574C208.612 221.338 208.619 224.206 206.78 225.893C192.623 238.878 175.14 247.736 156.233 251.453C135.847 255.46 114.729 253.309 95.5701 245.273C76.4109 237.236 60.0776 223.679 48.6508 206.327C37.224 188.975 31.221 168.614 31.4065 147.839C31.592 127.063 37.9577 106.813 49.6925 89.668C61.4274 72.523 78.0003 59.2592 97.2999 51.5662C116.6 43.8732 137.752 42.0994 158.064 46.4706C176.901 50.5245 194.223 59.6935 208.146 72.9292C209.954 74.6481 209.897 77.5156 208.101 79.2478L182.824 103.638C181.029 105.37 178.18 105.305 176.318 103.644C168.523 96.6877 159.037 91.8512 148.773 89.6423C137.033 87.1157 124.806 88.141 113.651 92.5875C102.496 97.0341 92.917 104.701 86.1342 114.61C79.3515 124.52 75.6721 136.225 75.5649 148.233C75.4577 160.241 78.9274 172.01 85.5321 182.039C92.1368 192.069 101.577 199.905 112.651 204.55C123.725 209.195 135.932 210.438 147.715 208.122C158.017 206.097 167.588 201.43 175.506 194.614C177.397 192.987 180.246 192.972 182.01 194.736L206.848 219.574Z" fill="url(#paint0_linear_6144_20082)"/>
<path d="M220.018 272.415C220.008 276.434 215.148 278.44 212.307 275.598L180.382 243.673C179.514 242.805 179.036 241.62 179.06 240.393L179.857 198.942C179.907 196.379 177.817 194.289 175.254 194.339L133.804 195.136C132.576 195.16 131.391 194.682 130.523 193.814L98.701 161.992C95.8592 159.15 97.865 154.291 101.884 154.281L215.769 154.001C218.272 153.995 220.303 156.026 220.297 158.529L220.018 272.415Z" fill="url(#paint1_linear_6144_20082)"/>
<ellipse cx="261.326" cy="257.917" rx="32.0038" ry="31.5189" fill="url(#paint2_linear_6144_20082)"/>
<mask id="mask0_6144_20082" style="mask-type:alpha" maskUnits="userSpaceOnUse" x="31" y="44" width="263" height="246">
<path d="M206.848 219.574C208.612 221.338 208.619 224.206 206.78 225.893C192.623 238.878 175.14 247.736 156.233 251.453C135.847 255.46 114.729 253.309 95.5701 245.273C76.4109 237.236 60.0776 223.679 48.6508 206.327C37.224 188.975 31.221 168.614 31.4065 147.839C31.592 127.063 37.9577 106.813 49.6925 89.668C61.4274 72.523 78.0003 59.2592 97.2999 51.5662C116.6 43.8732 137.752 42.0994 158.064 46.4706C176.901 50.5245 194.223 59.6935 208.146 72.9292C209.954 74.6481 209.897 77.5156 208.101 79.2478L182.824 103.638C181.029 105.37 178.18 105.305 176.318 103.644C168.523 96.6877 159.037 91.8512 148.773 89.6423C137.033 87.1157 124.806 88.141 113.651 92.5875C102.496 97.0341 92.917 104.701 86.1342 114.61C79.3515 124.52 75.6721 136.225 75.5649 148.233C75.4577 160.241 78.9274 172.01 85.5321 182.039C92.1368 192.069 101.577 199.905 112.651 204.55C123.725 209.195 135.932 210.438 147.715 208.122C158.017 206.097 167.588 201.43 175.506 194.614C177.397 192.987 180.246 192.972 182.01 194.736L206.848 219.574Z" fill="black"/>
<path d="M220.017 272.415C220.007 276.434 215.148 278.44 212.306 275.598L180.382 243.673C179.513 242.805 179.036 241.62 179.059 240.392L179.857 198.941C179.906 196.379 177.816 194.289 175.254 194.338L133.803 195.136C132.575 195.159 131.39 194.682 130.522 193.814L98.7004 161.992C95.8586 159.15 97.8644 154.291 101.883 154.281L215.769 154.002C218.272 153.996 220.303 156.027 220.297 158.53L220.017 272.415Z" fill="black"/>
<ellipse cx="261.326" cy="257.917" rx="32.0038" ry="31.5189" fill="black"/>
</mask>
<g mask="url(#mask0_6144_20082)">
<path d="M356.908 -41.6956H-40.5918V355.804L356.908 -41.6956Z" fill="white" fill-opacity="0.15"/>
</g>
<defs>
<linearGradient id="paint0_linear_6144_20082" x1="136.047" y1="44.1283" x2="136.047" y2="253.418" gradientUnits="userSpaceOnUse">
<stop stop-color="white"/>
<stop offset="1" stop-color="#0A66C2"/>
</linearGradient>
<linearGradient id="paint1_linear_6144_20082" x1="218.974" y1="155.324" x2="155.504" y2="218.795" gradientUnits="userSpaceOnUse">
<stop stop-color="white"/>
<stop offset="1" stop-color="#0A66C2"/>
</linearGradient>
<linearGradient id="paint2_linear_6144_20082" x1="261.326" y1="226.398" x2="261.326" y2="289.436" gradientUnits="userSpaceOnUse">
<stop stop-color="white"/>
<stop offset="1" stop-color="#0A66C2"/>
</linearGradient>
</defs>
</svg>
