<svg width="318" height="318" viewBox="0 0 318 318" fill="none" xmlns="http://www.w3.org/2000/svg">
<path d="M298.92 162.312C298.92 151.978 297.993 142.04 296.27 132.5H159V188.945H237.44C233.995 207.098 223.66 222.467 208.158 232.802V269.505H255.46C283.02 244.065 298.92 206.7 298.92 162.312Z" fill="#4285F4"/>
<path d="M158.998 304.75C198.35 304.75 231.343 291.765 255.458 269.505L208.155 232.802C195.17 241.547 178.608 246.847 158.998 246.847C121.103 246.847 88.9053 221.275 77.3778 186.825H28.8828V224.455C52.8653 272.022 102.023 304.75 158.998 304.75Z" fill="#34A853"/>
<path d="M77.38 186.692C74.465 177.947 72.7425 168.672 72.7425 158.999C72.7425 149.327 74.465 140.052 77.38 131.307V93.6768H28.885C18.9475 113.287 13.25 135.414 13.25 158.999C13.25 182.584 18.9475 204.712 28.885 224.322L66.6475 194.907L77.38 186.692Z" fill="#FBBC05"/>
<path d="M158.998 71.285C180.463 71.285 199.543 78.705 214.78 93.015L256.518 51.2775C231.21 27.6925 198.35 13.25 158.998 13.25C102.023 13.25 52.8653 45.9775 28.8828 93.6775L77.3778 131.307C88.9053 96.8575 121.103 71.285 158.998 71.285Z" fill="#EA4335"/>
</svg>
