<svg width="824" height="503" viewBox="0 0 824 503" fill="none" xmlns="http://www.w3.org/2000/svg">
<g clip-path="url(#clip0_6179_20021)">
<path d="M422.642 406.759L134.629 480.925C124.859 483.429 114.495 481.956 105.811 476.828C97.1259 471.7 90.8299 463.337 88.3037 453.573L1.20617 115.326C-1.29777 105.556 0.175797 95.1919 5.30359 86.5073C10.4314 77.8227 18.7946 71.5266 28.5586 69.0005L296.507 0.00109863L365.084 30.7019L449.994 360.433C452.498 370.203 451.025 380.567 445.897 389.252C440.769 397.937 432.406 404.233 422.642 406.759Z" fill="#F2F2F2"/>
<path d="M31.2849 79.6056C24.3317 81.4044 18.3759 85.8879 14.7243 92.0723C11.0726 98.2568 10.0231 105.637 11.8062 112.594L98.9092 450.843C100.708 457.796 105.191 463.752 111.376 467.403C117.56 471.055 124.941 472.104 131.898 470.321L419.911 396.157C426.864 394.358 432.82 389.874 436.471 383.69C440.123 377.505 441.172 370.125 439.389 363.168L355.795 38.5428L295.524 11.561L31.2849 79.6056Z" fill="white"/>
<path d="M364.353 32.4504L319.779 43.9288C316.525 44.7667 313.071 44.2775 310.178 42.569C307.284 40.8606 305.188 38.0727 304.35 34.8187L295.872 1.89696C295.836 1.75291 295.84 1.60137 295.885 1.4597C295.93 1.31804 296.015 1.19195 296.128 1.09588C296.242 0.999817 296.38 0.93766 296.527 0.916505C296.674 0.89535 296.824 0.91605 296.96 0.976258L364.477 30.9599C364.627 31.0268 364.753 31.1386 364.836 31.2801C364.92 31.4215 364.958 31.5855 364.944 31.7493C364.93 31.9131 364.866 32.0686 364.76 32.1942C364.654 32.3198 364.512 32.4094 364.353 32.4504Z" fill="#F2F2F2"/>
<path d="M340.901 321.304L209.772 355.073C208.149 355.482 206.43 355.231 204.991 354.376C203.552 353.521 202.51 352.131 202.093 350.51C201.675 348.888 201.916 347.168 202.764 345.724C203.611 344.281 204.995 343.231 206.613 342.804L337.741 309.034C338.549 308.822 339.39 308.771 340.217 308.884C341.045 308.998 341.841 309.274 342.561 309.696C343.281 310.119 343.911 310.679 344.414 311.346C344.916 312.012 345.282 312.772 345.49 313.58C345.699 314.389 345.745 315.231 345.627 316.057C345.508 316.884 345.228 317.679 344.801 318.396C344.375 319.114 343.811 319.74 343.141 320.239C342.472 320.738 341.71 321.1 340.901 321.304Z" fill="#CCCCCC"/>
<path d="M371.539 335.491L215.105 375.775C214.298 375.987 213.457 376.038 212.629 375.925C211.802 375.811 211.006 375.535 210.286 375.113C209.565 374.69 208.936 374.13 208.433 373.463C207.93 372.797 207.565 372.037 207.356 371.229C207.148 370.42 207.102 369.578 207.22 368.752C207.338 367.925 207.619 367.13 208.045 366.413C208.472 365.695 209.036 365.069 209.706 364.57C210.375 364.071 211.136 363.709 211.946 363.505L368.38 323.221C370.003 322.813 371.722 323.064 373.161 323.919C374.6 324.774 375.642 326.164 376.059 327.785C376.477 329.406 376.236 331.127 375.389 332.571C374.542 334.014 373.157 335.064 371.539 335.491Z" fill="#CCCCCC"/>
<path d="M156.258 395.74C168.623 395.74 178.648 385.715 178.648 373.349C178.648 360.984 168.623 350.959 156.258 350.959C143.892 350.959 133.867 360.984 133.867 373.349C133.867 385.715 143.892 395.74 156.258 395.74Z" fill="#2962FF"/>
<path d="M326.959 262.708L152.807 307.537C147.774 308.826 142.435 308.067 137.961 305.425C133.487 302.783 130.244 298.474 128.943 293.444L92.4489 151.666C91.1606 146.634 91.9208 141.296 94.5627 136.823C97.2047 132.351 101.513 129.108 106.542 127.808L280.693 82.9784C285.726 81.6888 291.065 82.4483 295.539 85.0904C300.013 87.7325 303.256 92.0413 304.556 97.0715L341.052 238.849C342.34 243.881 341.58 249.219 338.938 253.692C336.296 258.165 331.988 261.407 326.959 262.708Z" fill="white"/>
<path d="M326.959 262.708L152.807 307.537C147.774 308.826 142.435 308.067 137.961 305.425C133.487 302.783 130.244 298.474 128.943 293.444L92.4489 151.666C91.1606 146.634 91.9208 141.296 94.5627 136.823C97.2047 132.351 101.513 129.108 106.542 127.808L280.693 82.9784C285.726 81.6888 291.065 82.4483 295.539 85.0904C300.013 87.7325 303.256 92.0413 304.556 97.0715L341.052 238.849C342.34 243.881 341.58 249.219 338.938 253.692C336.296 258.165 331.988 261.407 326.959 262.708ZM107.116 130.036C102.679 131.185 98.8781 134.047 96.5479 137.994C94.2177 141.942 93.5482 146.652 94.6863 151.092L131.182 292.869C132.331 297.307 135.193 301.108 139.14 303.438C143.087 305.768 147.798 306.437 152.238 305.299L326.386 260.475C330.823 259.326 334.624 256.464 336.954 252.516C339.284 248.569 339.954 243.859 338.816 239.419L302.323 97.6413C301.175 93.2038 298.313 89.4032 294.365 87.073C290.418 84.7428 285.708 84.0733 281.267 85.2114L107.116 130.036Z" fill="#E6E6E6"/>
<path d="M271.858 130.646L183.968 153.27C183.2 153.485 182.379 153.4 181.671 153.032C180.963 152.665 180.421 152.042 180.154 151.29C180.03 150.898 179.988 150.484 180.029 150.074C180.07 149.664 180.195 149.266 180.395 148.906C180.594 148.546 180.866 148.23 181.192 147.978C181.518 147.726 181.892 147.543 182.291 147.441L271.759 124.41C275.373 126.241 274.422 129.987 271.859 130.647L271.858 130.646Z" fill="#F2F2F2"/>
<path d="M275.824 146.058L187.935 168.682C187.167 168.897 186.346 168.812 185.638 168.444C184.93 168.077 184.388 167.454 184.121 166.702C183.997 166.309 183.954 165.895 183.996 165.485C184.037 165.075 184.161 164.678 184.361 164.318C184.561 163.958 184.832 163.642 185.158 163.39C185.484 163.138 185.858 162.955 186.257 162.852L275.725 139.822C279.34 141.653 278.388 145.399 275.826 146.059L275.824 146.058Z" fill="#F2F2F2"/>
<path d="M171.195 182.355L144.371 189.257C143.937 189.369 143.486 189.394 143.042 189.331C142.599 189.269 142.172 189.119 141.786 188.891C141.4 188.664 141.063 188.362 140.794 188.004C140.525 187.646 140.329 187.238 140.218 186.804L132.069 155.157C131.957 154.724 131.932 154.272 131.995 153.828C132.057 153.385 132.207 152.958 132.435 152.572C132.663 152.187 132.964 151.85 133.322 151.58C133.68 151.311 134.088 151.115 134.522 151.004L161.345 144.099C162.221 143.875 163.15 144.007 163.929 144.467C164.708 144.927 165.272 145.677 165.499 146.552L173.648 178.207C173.759 178.64 173.785 179.092 173.722 179.536C173.659 179.979 173.509 180.406 173.282 180.792C173.054 181.177 172.752 181.514 172.394 181.784C172.036 182.053 171.628 182.249 171.195 182.36V182.355Z" fill="#2962FF"/>
<path d="M283.699 177.694L149.56 212.223C148.792 212.437 147.971 212.352 147.263 211.985C146.555 211.617 146.013 210.995 145.746 210.243C145.622 209.85 145.579 209.436 145.621 209.026C145.662 208.616 145.786 208.219 145.986 207.858C146.186 207.498 146.457 207.182 146.783 206.93C147.109 206.678 147.483 206.496 147.882 206.393L283.6 171.457C287.214 173.289 286.262 177.034 283.699 177.694Z" fill="#F2F2F2"/>
<path d="M287.666 193.114L153.525 227.644C152.756 227.858 151.935 227.773 151.228 227.406C150.52 227.038 149.978 226.415 149.711 225.664C149.587 225.271 149.544 224.857 149.586 224.447C149.627 224.037 149.751 223.64 149.951 223.279C150.151 222.919 150.422 222.603 150.748 222.351C151.074 222.099 151.448 221.916 151.847 221.814L287.565 186.878C291.179 188.709 290.228 192.455 287.665 193.115L287.666 193.114Z" fill="#F2F2F2"/>
<path d="M291.63 208.527L157.491 243.056C156.723 243.27 155.902 243.185 155.194 242.818C154.486 242.45 153.944 241.828 153.678 241.076C153.554 240.683 153.511 240.269 153.552 239.859C153.594 239.449 153.718 239.052 153.918 238.691C154.118 238.331 154.389 238.015 154.715 237.763C155.041 237.511 155.415 237.329 155.814 237.226L291.53 202.29C295.145 204.122 294.193 207.867 291.63 208.527Z" fill="#F2F2F2"/>
<path d="M295.602 223.947L161.462 258.476C160.694 258.691 159.873 258.605 159.165 258.238C158.457 257.87 157.915 257.248 157.648 256.496C157.524 256.103 157.482 255.689 157.523 255.279C157.564 254.869 157.689 254.472 157.889 254.112C158.089 253.751 158.36 253.436 158.686 253.184C159.012 252.932 159.386 252.749 159.785 252.646L295.502 217.71C299.115 219.542 298.165 223.287 295.602 223.947Z" fill="#F2F2F2"/>
<path d="M299.574 239.359L165.435 273.888C164.667 274.102 163.846 274.017 163.138 273.649C162.43 273.282 161.888 272.659 161.621 271.908C161.497 271.515 161.454 271.101 161.496 270.691C161.537 270.281 161.661 269.884 161.861 269.523C162.061 269.163 162.332 268.847 162.658 268.595C162.984 268.343 163.358 268.16 163.757 268.058L299.475 233.122C303.088 234.953 302.137 238.699 299.574 239.359Z" fill="#F2F2F2"/>
<path d="M157.907 381.198C157.419 381.324 156.904 381.289 156.438 381.097L156.41 381.084L150.31 378.498C150.028 378.378 149.771 378.204 149.556 377.984C149.341 377.765 149.171 377.506 149.056 377.221C148.942 376.936 148.884 376.631 148.887 376.324C148.89 376.017 148.953 375.714 149.073 375.431C149.193 375.148 149.368 374.892 149.587 374.677C149.807 374.462 150.066 374.292 150.351 374.177C150.636 374.062 150.94 374.005 151.247 374.008C151.554 374.011 151.858 374.074 152.141 374.194L156.093 375.875L161.272 363.691C161.514 363.121 161.974 362.67 162.548 362.438C163.123 362.206 163.767 362.212 164.337 362.455L164.307 362.534L164.338 362.454C164.909 362.697 165.359 363.156 165.591 363.731C165.823 364.306 165.817 364.95 165.575 365.521L159.482 379.846C159.341 380.176 159.125 380.469 158.852 380.703C158.579 380.936 158.256 381.104 157.908 381.192L157.907 381.198Z" fill="white"/>
<path d="M705.359 495.744L413.414 438.996C403.516 437.06 394.789 431.277 389.149 422.915C383.51 414.553 381.417 404.295 383.332 394.392L449.978 51.5268C451.913 41.6286 457.696 32.9024 466.058 27.2625C474.419 21.6227 484.676 19.5299 494.579 21.4432L766.185 74.2382L814.929 131.424L749.96 465.657C748.026 475.556 742.243 484.283 733.881 489.924C725.52 495.564 715.262 497.658 705.359 495.744Z" fill="#E6E6E6"/>
<path d="M492.486 32.1941C485.435 30.8317 478.131 32.322 472.176 36.3382C466.222 40.3544 462.104 46.5684 460.726 53.617L394.079 396.482C392.717 403.534 394.207 410.838 398.224 416.792C402.24 422.746 408.454 426.864 415.502 428.243L707.447 484.991C714.499 486.354 721.803 484.863 727.757 480.847C733.711 476.831 737.829 470.617 739.208 463.568L803.169 134.515L760.333 84.2583L492.486 32.1941Z" fill="white"/>
<path d="M708.27 177.6L575.352 151.763C573.703 151.443 572.248 150.48 571.309 149.087C570.369 147.694 570.021 145.985 570.342 144.336C570.663 142.687 571.625 141.233 573.018 140.293C574.411 139.354 576.12 139.006 577.769 139.326L710.691 165.164C712.34 165.484 713.794 166.447 714.734 167.84C715.673 169.233 716.021 170.942 715.7 172.591C715.38 174.24 714.417 175.695 713.024 176.634C711.632 177.574 709.922 177.921 708.273 177.601L708.27 177.6Z" fill="#2962FF"/>
<path d="M729.843 203.574L571.274 172.751C569.624 172.43 568.17 171.468 567.231 170.075C566.291 168.682 565.943 166.973 566.264 165.324C566.584 163.674 567.547 162.22 568.94 161.281C570.333 160.341 572.042 159.993 573.691 160.314L732.261 191.137C733.91 191.457 735.364 192.42 736.304 193.813C737.243 195.206 737.591 196.915 737.27 198.564C736.95 200.213 735.987 201.668 734.594 202.607C733.202 203.547 731.492 203.894 729.843 203.574Z" fill="#2962FF"/>
<path d="M692.406 259.214L559.491 233.378C557.842 233.057 556.133 233.405 554.741 234.344C553.348 235.284 552.385 236.738 552.065 238.387C551.744 240.036 552.092 241.745 553.031 243.138C553.971 244.531 555.425 245.493 557.074 245.814L689.989 271.65C691.628 271.946 693.318 271.585 694.693 270.644C696.067 269.704 697.016 268.26 697.334 266.625C697.652 264.99 697.313 263.295 696.391 261.908C695.469 260.521 694.037 259.553 692.406 259.214Z" fill="#CCCCCC"/>
<path d="M713.981 285.19L555.414 254.368C554.592 254.197 553.745 254.191 552.921 254.35C552.098 254.509 551.314 254.83 550.615 255.294C549.917 255.759 549.317 256.358 548.852 257.056C548.387 257.754 548.065 258.537 547.905 259.361C547.744 260.184 547.75 261.031 547.92 261.853C548.089 262.675 548.421 263.454 548.895 264.147C549.368 264.839 549.975 265.43 550.679 265.886C551.383 266.343 552.171 266.654 552.996 266.803L711.563 297.626C712.384 297.797 713.231 297.803 714.055 297.643C714.879 297.484 715.662 297.163 716.361 296.699C717.06 296.234 717.659 295.635 718.124 294.937C718.59 294.239 718.912 293.456 719.072 292.632C719.232 291.809 719.227 290.962 719.057 290.14C718.887 289.319 718.555 288.539 718.082 287.847C717.608 287.154 717.001 286.563 716.297 286.107C715.593 285.651 714.807 285.339 713.981 285.19Z" fill="#CCCCCC"/>
<path d="M671.707 365.707L538.789 339.871C537.14 339.55 535.686 338.587 534.746 337.194C533.807 335.802 533.459 334.093 533.78 332.443C534.1 330.794 535.063 329.34 536.456 328.4C537.848 327.461 539.558 327.113 541.207 327.434L674.128 353.271C675.777 353.592 677.232 354.554 678.171 355.947C679.111 357.34 679.459 359.049 679.138 360.698C678.817 362.347 677.855 363.802 676.462 364.741C675.069 365.681 673.36 366.028 671.711 365.708L671.707 365.707Z" fill="#CCCCCC"/>
<path d="M693.279 391.68L534.709 360.857C533.06 360.537 531.606 359.574 530.666 358.181C529.727 356.788 529.379 355.079 529.699 353.43C530.02 351.781 530.983 350.326 532.376 349.387C533.768 348.447 535.477 348.1 537.127 348.42L695.696 379.243C697.346 379.564 698.8 380.526 699.739 381.919C700.679 383.312 701.027 385.021 700.706 386.67C700.385 388.319 699.423 389.774 698.03 390.713C696.637 391.653 694.928 392.001 693.279 391.68Z" fill="#CCCCCC"/>
<path d="M514.897 167.259C527.036 169.618 538.789 161.691 541.149 149.552C543.508 137.413 535.581 125.66 523.442 123.301C511.303 120.941 499.55 128.869 497.191 141.007C494.831 153.146 502.759 164.899 514.897 167.259Z" fill="#2962FF"/>
<path d="M515.364 153.24C514.869 153.145 514.419 152.892 514.081 152.518L514.06 152.495L509.662 147.539C509.26 147.073 509.058 146.468 509.1 145.855C509.141 145.241 509.422 144.668 509.883 144.261C510.343 143.853 510.946 143.643 511.56 143.676C512.174 143.71 512.75 143.984 513.164 144.439L516.012 147.655L525.921 138.877C526.151 138.674 526.419 138.517 526.709 138.417C526.999 138.317 527.306 138.275 527.613 138.294C527.919 138.313 528.219 138.392 528.495 138.526C528.771 138.661 529.018 138.848 529.221 139.078L529.16 139.135L529.224 139.077C529.634 139.541 529.844 140.15 529.806 140.768C529.768 141.387 529.487 141.966 529.023 142.377L517.364 152.697C517.095 152.935 516.774 153.107 516.427 153.201C516.08 153.294 515.717 153.307 515.364 153.237L515.364 153.24Z" fill="white"/>
<path d="M525.124 244.042C524.564 246.929 523.441 249.678 521.819 252.13C520.196 254.583 518.107 256.692 515.669 258.337C513.232 259.982 510.494 261.131 507.613 261.718C504.731 262.305 501.762 262.318 498.876 261.758C498.686 261.725 498.499 261.68 498.314 261.625C494.014 260.674 490.09 258.476 487.033 255.306C483.976 252.137 481.922 248.136 481.128 243.804C480.333 239.473 480.834 235.003 482.567 230.954C484.3 226.906 487.188 223.459 490.871 221.044C494.553 218.629 498.866 217.353 503.27 217.377C507.673 217.401 511.972 218.723 515.628 221.178C519.284 223.633 522.135 227.111 523.824 231.178C525.513 235.245 525.965 239.72 525.124 244.042Z" fill="#2962FF"/>
<path d="M478.333 355.366C490.472 357.725 502.225 349.798 504.584 337.659C506.944 325.52 499.016 313.767 486.877 311.408C474.739 309.048 462.986 316.976 460.626 329.114C458.267 341.253 466.194 353.006 478.333 355.366Z" fill="#2962FF"/>
<path d="M813.515 132.687L768.333 123.904C765.035 123.263 762.126 121.338 760.247 118.552C758.368 115.766 757.672 112.348 758.314 109.05L764.8 75.6789C764.829 75.5329 764.898 75.3978 764.999 75.2892C765.101 75.1806 765.231 75.1028 765.375 75.0648C765.519 75.0268 765.671 75.0301 765.813 75.0743C765.955 75.1186 766.082 75.2019 766.179 75.3149L814.268 131.391C814.375 131.516 814.441 131.671 814.455 131.834C814.47 131.998 814.434 132.162 814.351 132.304C814.269 132.446 814.144 132.559 813.994 132.627C813.845 132.695 813.677 132.715 813.516 132.683L813.515 132.687Z" fill="#CCCCCC"/>
<path d="M545.702 466.346C544.311 468.627 542.07 470.262 539.474 470.891C536.877 471.52 534.137 471.092 531.856 469.701L414.318 398.008C412.037 396.616 410.403 394.376 409.773 391.779C409.144 389.183 409.573 386.442 410.964 384.161C412.355 381.88 414.596 380.246 417.192 379.617C419.789 378.987 422.529 379.416 424.81 380.807L542.347 452.5C544.627 453.892 546.262 456.132 546.891 458.728C547.52 461.325 547.093 464.065 545.702 466.346Z" fill="#071829"/>
<path d="M428.164 394.658C419.864 408.266 407.715 419.107 393.254 425.81C378.793 432.514 362.668 434.778 346.92 432.318C331.172 429.858 316.507 422.782 304.78 411.987C293.052 401.192 284.79 387.162 281.036 371.671C277.282 356.18 278.207 339.924 283.692 324.958C289.178 309.993 298.978 296.99 311.853 287.593C324.728 278.197 340.101 272.83 356.026 272.171C371.952 271.511 387.716 275.589 401.324 283.889C410.359 289.399 418.221 296.636 424.46 305.185C430.699 313.734 435.193 323.429 437.685 333.715C440.178 344.001 440.62 354.677 438.986 365.133C437.352 375.59 433.675 385.623 428.164 394.658ZM307.76 321.211C301.536 331.418 298.477 343.24 298.972 355.185C299.466 367.129 303.491 378.659 310.538 388.315C317.585 397.972 327.338 405.322 338.562 409.436C349.787 413.55 361.979 414.244 373.597 411.428C385.216 408.613 395.738 402.416 403.835 393.62C411.931 384.825 417.237 373.826 419.083 362.014C420.928 350.203 419.229 338.11 414.201 327.264C409.174 316.418 401.043 307.306 390.836 301.082C377.15 292.734 360.709 290.166 345.129 293.941C329.55 297.716 316.108 307.526 307.76 321.211Z" fill="#071829"/>
<path d="M338.052 411.139C370.797 422.414 406.483 405.009 417.758 372.264C429.033 339.518 411.628 303.832 378.883 292.557C346.137 281.282 310.451 298.687 299.176 331.433C287.901 364.178 305.306 399.864 338.052 411.139Z" fill="#2962FF"/>
</g>
<defs>
<clipPath id="clip0_6179_20021">
<rect width="823.867" height="503" fill="white"/>
</clipPath>
</defs>
</svg>
