<svg width="675" height="555" viewBox="0 0 675 555" fill="none" xmlns="http://www.w3.org/2000/svg">
<g clip-path="url(#clip0_6144_20010)">
<path d="M549.136 55.7743C553.447 38.19 549.348 17.6825 535.419 6.11609C535.147 25.803 527.92 44.7591 515.017 59.6304C510.02 65.3477 503.867 71.1863 503.624 78.7757C503.473 83.4979 505.779 88.0336 508.955 91.531C512.132 95.0285 516.139 97.6458 520.099 100.223L520.68 101.249C533.427 88.3917 544.824 73.3586 549.136 55.7743Z" fill="#F0F0F0"/>
<path d="M535.138 6.37298C540.48 20.3745 541.274 35.7032 537.408 50.1819C536.631 53.3136 535.365 56.3033 533.657 59.0408C531.908 61.6538 529.49 63.7505 526.656 65.1131C524.038 66.4367 521.208 67.4875 518.958 69.4242C517.821 70.4327 516.91 71.6701 516.285 73.0553C515.66 74.4405 515.335 75.9422 515.331 77.4619C515.222 81.2484 516.48 84.848 517.833 88.3255C519.336 92.1865 520.957 96.1731 520.61 100.4C520.568 100.913 521.365 100.948 521.407 100.436C522.011 93.0817 517.016 86.8694 516.224 79.7357C515.854 76.407 516.485 72.9467 518.946 70.5198C521.098 68.3975 524.016 67.3114 526.678 65.9942C529.462 64.7055 531.889 62.7546 533.745 60.3119C535.587 57.6701 536.966 54.7342 537.822 51.6298C539.863 44.6716 540.796 37.4359 540.589 30.1878C540.398 21.9142 538.793 13.7342 535.844 6.00181C535.661 5.52329 534.956 5.89759 535.138 6.37298Z" fill="white"/>
<path d="M538.928 45.5931C541.445 45.9119 543.993 45.3256 546.118 43.9388C548.243 42.552 549.806 40.4551 550.527 38.0224C550.672 37.5297 549.913 37.2823 549.768 37.7757C549.101 40.0422 547.645 41.9954 545.663 43.2827C543.682 44.57 541.306 45.1067 538.964 44.7959C538.455 44.729 538.421 45.5265 538.928 45.5931Z" fill="white"/>
<path d="M528.073 64.6168C524.858 60.5459 523.296 55.4131 523.698 50.2418C523.739 49.7294 522.942 49.694 522.901 50.2056C522.493 55.5878 524.129 60.926 527.483 65.155C527.803 65.5578 528.391 65.0175 528.073 64.6168Z" fill="white"/>
<path d="M539.438 22.3569C538.439 22.4365 537.435 22.2666 536.517 21.8623C535.599 21.4581 534.796 20.8322 534.18 20.0409C533.865 19.6342 533.278 20.175 533.591 20.5791C534.276 21.4501 535.163 22.1403 536.176 22.5891C537.189 23.038 538.297 23.232 539.402 23.1541C539.507 23.1555 539.608 23.1169 539.686 23.0462C539.763 22.9755 539.811 22.8781 539.819 22.7736C539.823 22.668 539.786 22.565 539.714 22.487C539.643 22.409 539.544 22.3622 539.438 22.3569Z" fill="white"/>
<path d="M475.184 17.4998C475.373 17.7593 475.562 18.0189 475.749 18.2848C478.276 21.7874 480.514 25.4896 482.442 29.3546C482.595 29.6511 482.747 29.9538 482.891 30.2541C487.435 39.6154 490.202 49.739 491.05 60.1102C491.384 64.2375 491.403 68.3841 491.108 72.5143C490.7 78.2183 489.803 84.3703 491.26 89.7185C491.406 90.2782 491.586 90.8283 491.8 91.3657L519.382 101.879C519.457 101.872 519.529 101.87 519.604 101.863L520.686 102.333C520.717 102.121 520.743 101.901 520.773 101.689C520.791 101.566 520.803 101.441 520.821 101.318C520.831 101.235 520.841 101.152 520.855 101.078C520.858 101.051 520.861 101.023 520.862 101.002C520.876 100.928 520.881 100.858 520.892 100.79C521.045 99.5581 521.189 98.3229 521.325 97.0845C521.327 97.0782 521.327 97.0782 521.323 97.0696C522.448 87.6432 522.45 78.1167 521.33 68.6897C521.293 68.4089 521.258 68.1218 521.208 67.8362C520.629 63.6313 519.706 59.4808 518.45 55.4261C517.755 53.2082 516.949 51.0268 516.033 48.8903C513.657 43.3748 510.429 38.2673 506.465 33.755C498.564 24.7611 487.873 18.3943 476.085 17.555C475.783 17.5338 475.488 17.5147 475.184 17.4998Z" fill="#F0F0F0"/>
<path d="M475.114 17.8735C487.809 25.8368 497.672 37.5976 503.303 51.4856C504.568 54.4539 505.357 57.603 505.642 60.8171C505.818 63.9569 505.15 67.0866 503.707 69.881C502.414 72.5135 500.787 75.0566 500.157 77.9575C499.856 79.4472 499.874 80.9837 500.209 82.4661C500.544 83.9484 501.188 85.3433 502.1 86.5592C504.293 89.6479 507.465 91.7644 510.638 93.7264C514.162 95.9048 517.857 98.1117 520.125 101.696C520.4 102.13 521.058 101.678 520.783 101.245C516.837 95.0088 509.109 93.056 504.181 87.8371C501.882 85.4019 500.303 82.259 500.807 78.8395C501.247 75.8493 502.923 73.2254 504.255 70.5712C505.702 67.8659 506.465 64.8473 506.477 61.7791C506.357 58.5609 505.69 55.3866 504.505 52.3922C501.945 45.6081 498.334 39.2687 493.804 33.6063C488.671 27.1152 482.465 21.5501 475.455 17.1518C475.021 16.8798 474.683 17.6032 475.114 17.8735Z" fill="white"/>
<path d="M501.752 46.9069C503.954 45.6459 505.636 43.6433 506.497 41.2567C507.359 38.8702 507.344 36.255 506.456 33.8783C506.274 33.398 505.519 33.6574 505.701 34.1383C506.533 36.35 506.546 38.786 505.739 41.0068C504.932 43.2275 503.358 45.0867 501.301 46.2487C500.854 46.5018 501.308 47.1586 501.752 46.9069Z" fill="white"/>
<path d="M504.538 68.6324C499.52 67.3172 495.183 64.1593 492.39 59.7882C492.114 59.3549 491.456 59.8065 491.732 60.2393C494.647 64.7825 499.167 68.0597 504.391 69.4168C504.889 69.5458 505.033 68.7607 504.538 68.6324Z" fill="white"/>
<path d="M488.17 28.0472C487.419 28.7127 486.516 29.1813 485.539 29.4111C484.563 29.6409 483.545 29.6247 482.577 29.3638C482.081 29.2286 481.938 30.0139 482.431 30.1482C483.502 30.4315 484.626 30.448 485.705 30.1965C486.784 29.945 487.785 29.4331 488.621 28.7055C488.705 28.6435 488.763 28.5516 488.782 28.4486C488.802 28.3456 488.781 28.2391 488.724 28.1508C488.664 28.0639 488.572 28.0044 488.468 27.985C488.364 27.9656 488.257 27.9879 488.17 28.0472Z" fill="white"/>
<path d="M438.715 414.706C346.243 414.706 271.012 339.474 271.012 247.002C271.012 154.531 346.243 79.2992 438.715 79.2992C448.491 79.298 458.249 80.1435 467.88 81.8264C468 81.8471 468.114 81.8913 468.217 81.9565C468.32 82.0216 468.409 82.1065 468.48 82.2061C468.55 82.3058 468.6 82.4183 468.626 82.5373C468.653 82.6562 468.656 82.7792 468.635 82.8992C468.613 83.0193 468.569 83.134 468.503 83.2368C468.438 83.3396 468.353 83.4284 468.253 83.4983C468.153 83.5682 468.041 83.6177 467.922 83.644C467.803 83.6702 467.68 83.6727 467.56 83.6514C458.035 81.9874 448.384 81.1512 438.715 81.1523C347.265 81.1523 272.865 155.552 272.865 247.002C272.865 338.453 347.265 412.853 438.715 412.853C530.165 412.853 604.565 338.453 604.565 247.002C604.606 205.668 589.172 165.815 561.3 135.291C561.136 135.109 561.051 134.87 561.063 134.625C561.075 134.381 561.183 134.151 561.364 133.986C561.545 133.821 561.784 133.734 562.029 133.745C562.273 133.755 562.504 133.862 562.67 134.042C590.853 164.908 606.459 205.206 606.418 247.002C606.418 339.474 531.187 414.706 438.715 414.706Z" fill="#E4E4E4"/>
<path d="M512.661 136.816C530.986 136.816 545.841 121.96 545.841 103.635C545.841 85.3104 530.986 70.4551 512.661 70.4551C494.336 70.4551 479.48 85.3104 479.48 103.635C479.48 121.96 494.336 136.816 512.661 136.816Z" fill="#064517"/>
<path d="M508.133 120.904C507.56 120.904 506.995 120.771 506.483 120.514C505.97 120.258 505.524 119.886 505.181 119.427L496.129 107.358C495.838 106.97 495.626 106.529 495.506 106.059C495.386 105.59 495.359 105.101 495.428 104.621C495.496 104.142 495.659 103.68 495.906 103.263C496.153 102.846 496.479 102.482 496.867 102.191C497.255 101.9 497.696 101.688 498.166 101.568C498.635 101.448 499.124 101.421 499.603 101.49C500.083 101.558 500.545 101.721 500.962 101.968C501.379 102.215 501.743 102.541 502.034 102.929L507.956 110.825L523.167 88.0095C523.711 87.1984 524.555 86.6361 525.513 86.4461C526.471 86.256 527.466 86.4535 528.279 86.9954C529.091 87.5373 529.656 88.3793 529.849 89.3369C530.042 90.2946 529.848 91.2897 529.309 92.1042L511.204 119.26C510.877 119.752 510.437 120.157 509.92 120.443C509.403 120.729 508.826 120.886 508.236 120.903C508.202 120.903 508.167 120.904 508.133 120.904Z" fill="white"/>
<path d="M434.401 220.977L383.234 78.6323L384.532 78.1659L375.122 51.9849L373.824 52.4518L358.114 8.74754C357.527 7.11523 356.624 5.61447 355.458 4.33094C354.291 3.04741 352.883 2.00626 351.314 1.26692C349.745 0.527578 348.045 0.104529 346.313 0.0219395C344.58 -0.0606502 342.848 0.198832 341.216 0.785566L248.717 34.0346C247.085 34.6213 245.584 35.5237 244.301 36.6904C243.017 37.8571 241.976 39.2652 241.237 40.8343C240.497 42.4034 240.074 44.1027 239.992 45.8353C239.909 47.5679 240.168 49.2998 240.755 50.9321L251.709 81.4053L249.659 82.1948L256.651 100.352L258.292 99.7202L259.744 103.759L257.998 104.432L264.99 122.589L266.328 122.074L317.042 263.162C317.626 264.796 318.527 266.299 319.693 267.584C320.86 268.87 322.268 269.912 323.838 270.652C325.408 271.391 327.109 271.814 328.842 271.895C330.576 271.976 332.308 271.714 333.94 271.124L426.438 237.875C429.733 236.687 432.421 234.24 433.914 231.072C435.406 227.905 435.582 224.274 434.401 220.977Z" fill="#071829"/>
<path d="M329.076 266.433C327.773 266.43 326.503 266.026 325.438 265.276C324.373 264.526 323.565 263.466 323.123 262.241L246.031 47.7711C245.463 46.1915 245.547 44.4511 246.262 42.9327C246.977 41.4143 248.267 40.2422 249.846 39.6743L269.527 32.6L269.498 33.2885C269.447 34.4838 269.691 35.6732 270.209 36.7519C270.726 37.8306 271.501 38.7654 272.465 39.4741C273.429 40.1828 274.552 40.6436 275.736 40.8159C276.92 40.9881 278.128 40.8666 279.254 40.462L322.931 24.762C323.986 24.2789 324.912 23.5545 325.634 22.6473C326.356 21.74 326.855 20.6755 327.09 19.5398C327.322 18.423 327.287 17.2672 326.987 16.1666C326.687 15.066 326.132 14.0519 325.365 13.2069L324.904 12.6943L345.234 5.38657C346.813 4.82112 348.553 4.90524 350.071 5.62052C351.589 6.3358 352.761 7.62384 353.331 9.20219L426.884 213.824C428.385 218.016 428.162 222.632 426.264 226.659C424.366 230.687 420.948 233.798 416.76 235.309L331.221 266.056C330.533 266.304 329.807 266.432 329.076 266.433Z" fill="white"/>
<path d="M321.538 114.314C335.354 114.314 346.554 103.113 346.554 89.297C346.554 75.4808 335.354 64.2805 321.538 64.2805C307.722 64.2805 296.521 75.4808 296.521 89.297C296.521 103.113 307.722 114.314 321.538 114.314Z" fill="#064517"/>
<path d="M383.531 125.677L296.898 156.818C296.627 156.916 296.34 156.959 296.053 156.946C295.765 156.933 295.483 156.863 295.223 156.741C294.962 156.618 294.728 156.446 294.535 156.233C294.341 156.02 294.191 155.771 294.094 155.5C293.996 155.23 293.954 154.942 293.967 154.655C293.981 154.367 294.052 154.086 294.175 153.825C294.298 153.565 294.471 153.332 294.684 153.139C294.897 152.945 295.147 152.796 295.418 152.699L382.051 121.558C382.597 121.364 383.197 121.394 383.721 121.641C384.245 121.889 384.649 122.334 384.845 122.879C385.041 123.425 385.013 124.025 384.767 124.55C384.52 125.074 384.076 125.48 383.531 125.677Z" fill="#E6E6E6"/>
<path d="M357.802 145.422L329.306 155.665C329.035 155.763 328.748 155.806 328.46 155.793C328.173 155.78 327.891 155.71 327.631 155.587C327.37 155.465 327.136 155.293 326.943 155.08C326.749 154.867 326.599 154.618 326.502 154.347C326.405 154.076 326.362 153.789 326.376 153.502C326.389 153.214 326.46 152.932 326.583 152.672C326.706 152.412 326.879 152.179 327.092 151.986C327.305 151.792 327.554 151.643 327.825 151.546L356.321 141.303C356.867 141.107 357.469 141.135 357.994 141.383C358.519 141.63 358.925 142.076 359.121 142.622C359.317 143.168 359.288 143.77 359.041 144.295C358.794 144.82 358.348 145.225 357.802 145.422Z" fill="#E6E6E6"/>
<path d="M364.581 164.278L336.085 174.521C335.814 174.618 335.527 174.661 335.24 174.647C334.953 174.633 334.672 174.563 334.412 174.441C334.152 174.318 333.919 174.146 333.725 173.933C333.532 173.721 333.382 173.472 333.285 173.202C333.188 172.931 333.145 172.644 333.159 172.357C333.172 172.07 333.242 171.788 333.365 171.529C333.487 171.269 333.66 171.035 333.873 170.842C334.085 170.649 334.334 170.499 334.604 170.402L363.1 160.159C363.647 159.962 364.248 159.991 364.773 160.239C365.298 160.486 365.704 160.932 365.9 161.478C366.096 162.024 366.068 162.626 365.82 163.151C365.573 163.676 365.127 164.081 364.581 164.278Z" fill="#E6E6E6"/>
<path d="M368.053 173.935L339.557 184.178C339.286 184.276 338.999 184.32 338.711 184.307C338.424 184.294 338.142 184.224 337.881 184.102C337.621 183.979 337.387 183.807 337.193 183.594C336.999 183.381 336.849 183.132 336.752 182.861C336.655 182.59 336.612 182.303 336.626 182.015C336.639 181.728 336.71 181.446 336.833 181.186C336.956 180.926 337.129 180.692 337.342 180.499C337.556 180.306 337.805 180.156 338.076 180.06L366.572 169.817C366.843 169.719 367.13 169.675 367.418 169.688C367.705 169.702 367.987 169.771 368.248 169.894C368.508 170.016 368.742 170.189 368.936 170.401C369.13 170.614 369.279 170.863 369.377 171.134C369.474 171.405 369.517 171.692 369.503 171.98C369.489 172.267 369.419 172.549 369.296 172.809C369.173 173.069 369 173.303 368.787 173.496C368.573 173.689 368.324 173.838 368.053 173.935Z" fill="#E6E6E6"/>
<path d="M377.127 148.973L316.668 170.705C316.397 170.803 316.11 170.847 315.822 170.833C315.535 170.82 315.253 170.75 314.992 170.628C314.732 170.506 314.498 170.333 314.304 170.12C314.111 169.907 313.961 169.658 313.863 169.388C313.766 169.117 313.723 168.829 313.737 168.542C313.751 168.255 313.821 167.973 313.944 167.712C314.067 167.452 314.24 167.219 314.454 167.026C314.667 166.832 314.916 166.683 315.187 166.586L375.646 144.854C375.917 144.756 376.204 144.712 376.492 144.726C376.779 144.739 377.061 144.809 377.322 144.931C377.582 145.053 377.816 145.226 378.01 145.439C378.203 145.652 378.353 145.901 378.45 146.171C378.548 146.442 378.591 146.73 378.577 147.017C378.563 147.304 378.493 147.586 378.37 147.847C378.247 148.107 378.074 148.34 377.86 148.533C377.647 148.727 377.398 148.876 377.127 148.973Z" fill="#E6E6E6"/>
<path d="M364.949 197.38L354.602 201.099C353.674 201.432 352.651 201.383 351.759 200.962C350.867 200.541 350.178 199.783 349.844 198.855C349.511 197.927 349.559 196.904 349.979 196.012C350.399 195.119 351.157 194.43 352.085 194.096L362.432 190.376C363.36 190.043 364.383 190.093 365.275 190.513C366.167 190.934 366.856 191.692 367.19 192.62C367.523 193.549 367.475 194.571 367.055 195.464C366.634 196.356 365.877 197.046 364.949 197.38Z" fill="#064517"/>
<path d="M283.412 33.2936C284.206 33.2936 284.85 32.6494 284.85 31.8547C284.85 31.06 284.206 30.4158 283.412 30.4158C282.617 30.4158 281.973 31.06 281.973 31.8547C281.973 32.6494 282.617 33.2936 283.412 33.2936Z" fill="white"/>
<path d="M117.934 112.782C134.061 93.7983 160.227 81.8348 184.351 88.0373C162.624 104.213 147.318 127.552 141.142 153.926C138.798 164.106 137.25 175.673 128.984 182.062C123.842 186.038 116.927 187.124 110.467 186.403C104.007 185.681 97.8582 183.324 91.7924 180.988L90.1797 181.167C94.2365 156.59 101.807 131.765 117.934 112.782Z" fill="#F0F0F0"/>
<path d="M184.289 88.5564C164.374 93.8897 146.645 105.362 133.621 121.345C130.756 124.736 128.444 128.558 126.769 132.669C125.267 136.726 124.878 141.112 125.644 145.37C126.279 149.355 127.389 153.357 127.044 157.427C126.837 159.507 126.192 161.52 125.151 163.334C124.111 165.148 122.699 166.721 121.008 167.951C116.875 171.124 111.847 172.624 106.88 173.919C101.365 175.358 95.6135 176.764 91.1809 180.559C90.6438 181.019 89.9617 180.159 90.4979 179.7C98.2099 173.097 109.163 173.657 117.754 168.789C121.763 166.517 125.111 163.024 125.833 158.323C126.463 154.213 125.322 150.085 124.645 146.056C123.836 141.913 124.055 137.635 125.281 133.596C126.741 129.413 128.903 125.508 131.673 122.051C137.785 114.166 145.098 107.292 153.346 101.68C162.723 95.2219 173.136 90.4159 184.133 87.4696C184.814 87.2875 184.966 88.3755 184.289 88.5564Z" fill="white"/>
<path d="M137.511 115.952C135.126 113.403 133.725 110.089 133.558 106.602C133.391 103.115 134.469 99.6825 136.599 96.9169C137.032 96.3588 137.919 97.0054 137.486 97.5642C135.497 100.136 134.494 103.334 134.656 106.58C134.818 109.827 136.136 112.909 138.371 115.269C138.856 115.783 137.993 116.463 137.511 115.952Z" fill="white"/>
<path d="M125.057 143.392C132.186 143.693 139.167 141.296 144.608 136.678C145.147 136.221 145.829 137.081 145.291 137.538C139.62 142.332 132.35 144.812 124.932 144.483C124.225 144.451 124.353 143.36 125.057 143.392Z" fill="white"/>
<path d="M163.005 96.6502C163.722 97.8288 164.721 98.8108 165.911 99.508C167.102 100.205 168.447 100.596 169.826 100.645C170.533 100.668 170.404 101.758 169.701 101.735C168.178 101.674 166.693 101.241 165.376 100.474C164.059 99.7063 162.95 98.628 162.145 97.3331C162.059 97.2174 162.02 97.0733 162.037 96.93C162.053 96.7868 162.124 96.6551 162.234 96.5619C162.348 96.472 162.493 96.4309 162.637 96.4474C162.782 96.464 162.914 96.5368 163.005 96.6502Z" fill="white"/>
<path d="M220.222 164.364C219.78 164.362 219.338 164.36 218.891 164.366C212.949 164.373 207.018 164.863 201.155 165.831C200.701 165.898 200.241 165.974 199.789 166.054C185.69 168.536 172.174 173.614 159.928 181.03C155.058 183.985 150.42 187.307 146.054 190.966C140.024 196.02 133.889 201.979 126.752 204.666C126.01 204.955 125.252 205.198 124.48 205.393L90.5225 183.12C90.4707 183.031 90.4135 182.949 90.3613 182.86L88.9648 182.032C89.1768 181.828 89.4011 181.62 89.6131 181.416C89.7356 181.297 89.8657 181.183 89.9881 181.064C90.0722 180.986 90.1567 180.908 90.2281 180.833C90.2559 180.807 90.2842 180.781 90.307 180.763C90.3784 180.688 90.4527 180.626 90.519 180.559C91.7694 179.395 93.0302 178.239 94.3014 177.089C94.3065 177.081 94.3064 177.081 94.3191 177.079C104.027 168.343 114.549 160.341 125.951 154.191C126.295 154.006 126.642 153.813 127.001 153.638C132.156 150.894 137.527 148.576 143.059 146.708C146.092 145.694 149.174 144.835 152.294 144.133C160.358 142.335 168.655 141.816 176.881 142.596C193.278 144.154 208.994 150.939 219.434 163.404C219.701 163.723 219.96 164.037 220.222 164.364Z" fill="#F0F0F0"/>
<path d="M219.863 164.745C200.75 157.013 179.687 155.499 159.666 160.419C155.337 161.402 151.19 163.061 147.377 165.335C143.735 167.67 140.785 170.938 138.833 174.799C136.94 178.362 135.417 182.227 132.691 185.268C131.273 186.804 129.546 188.023 127.623 188.845C125.701 189.667 123.626 190.073 121.536 190.037C116.325 190.083 111.408 188.253 106.662 186.297C101.392 184.124 95.953 181.785 90.1289 182.146C89.4232 182.19 89.3965 181.092 90.1011 181.049C100.234 180.42 108.642 187.461 118.433 188.747C123.001 189.347 127.778 188.573 131.184 185.255C134.162 182.353 135.736 178.369 137.621 174.744C139.47 170.95 142.221 167.666 145.631 165.179C149.316 162.718 153.392 160.902 157.686 159.809C167.313 157.194 177.291 156.108 187.255 156.593C198.63 157.082 209.838 159.514 220.393 163.783C221.046 164.048 220.512 165.008 219.863 164.745Z" fill="white"/>
<path d="M166.02 158.455C165.651 154.984 166.527 151.494 168.493 148.61C170.459 145.725 173.386 143.633 176.752 142.708C177.434 142.523 177.753 143.573 177.071 143.758C173.935 144.615 171.208 146.564 169.383 149.253C167.558 151.943 166.754 155.197 167.118 158.428C167.196 159.13 166.098 159.153 166.02 158.455Z" fill="white"/>
<path d="M139.554 172.866C145.065 177.399 152.083 179.688 159.207 179.277C159.913 179.236 159.94 180.333 159.235 180.374C151.82 180.788 144.522 178.391 138.798 173.661C138.252 173.21 139.012 172.417 139.554 172.866Z" fill="white"/>
<path d="M197.995 158.392C197.858 159.765 198.064 161.15 198.595 162.424C199.126 163.697 199.965 164.819 201.036 165.688C201.587 166.132 200.827 166.925 200.28 166.484C199.1 165.518 198.176 164.278 197.586 162.872C196.996 161.467 196.76 159.938 196.897 158.42C196.898 158.275 196.954 158.137 197.054 158.033C197.153 157.928 197.288 157.865 197.432 157.857C197.578 157.854 197.718 157.909 197.824 158.009C197.929 158.109 197.99 158.247 197.995 158.392Z" fill="white"/>
<path d="M601.924 477.643C619.509 481.954 640.016 477.855 651.582 463.926C631.896 463.654 612.939 456.427 598.068 443.524C592.351 438.527 586.512 432.374 578.923 432.131C574.201 431.98 569.665 434.286 566.168 437.462C562.67 440.639 560.053 444.646 557.475 448.606L556.449 449.188C569.307 461.934 584.34 473.332 601.924 477.643Z" fill="#F0F0F0"/>
<path d="M651.326 463.646C637.325 468.988 621.996 469.783 607.517 465.917C604.386 465.14 601.396 463.874 598.658 462.166C596.045 460.416 593.949 457.998 592.586 455.164C591.262 452.547 590.212 449.717 588.275 447.467C587.266 446.33 586.029 445.419 584.644 444.794C583.259 444.169 581.757 443.843 580.237 443.839C576.451 443.731 572.851 444.989 569.374 446.342C565.513 447.844 561.526 449.465 557.299 449.118C556.787 449.076 556.751 449.873 557.263 449.915C564.617 450.519 570.83 445.524 577.963 444.732C581.292 444.362 584.752 444.994 587.179 447.455C589.302 449.607 590.388 452.525 591.705 455.186C592.994 457.971 594.945 460.397 597.387 462.254C600.029 464.095 602.965 465.474 606.069 466.331C613.027 468.371 620.263 469.305 627.511 469.097C635.785 468.907 643.965 467.302 651.697 464.353C652.176 464.17 651.802 463.465 651.326 463.646Z" fill="white"/>
<path d="M612.106 467.436C611.787 469.953 612.374 472.502 613.761 474.627C615.147 476.751 617.244 478.314 619.677 479.036C620.17 479.18 620.417 478.421 619.924 478.277C617.657 477.609 615.704 476.153 614.417 474.172C613.129 472.19 612.593 469.814 612.903 467.472C612.97 466.963 612.173 466.93 612.106 467.436Z" fill="white"/>
<path d="M593.083 456.58C597.154 453.365 602.286 451.803 607.458 452.206C607.97 452.246 608.006 451.449 607.494 451.408C602.112 451 596.773 452.636 592.545 455.99C592.142 456.31 592.682 456.898 593.083 456.58Z" fill="white"/>
<path d="M635.341 467.946C635.262 466.946 635.432 465.942 635.836 465.024C636.24 464.107 636.866 463.304 637.657 462.687C638.064 462.373 637.523 461.786 637.119 462.098C636.248 462.783 635.558 463.671 635.109 464.684C634.66 465.697 634.466 466.804 634.544 467.909C634.543 468.014 634.581 468.116 634.652 468.193C634.723 468.27 634.82 468.318 634.925 468.326C635.03 468.33 635.133 468.293 635.211 468.222C635.289 468.15 635.336 468.051 635.341 467.946Z" fill="white"/>
<path d="M640.199 403.692C639.939 403.881 639.68 404.07 639.414 404.258C635.911 406.784 632.209 409.023 628.344 410.95C628.047 411.104 627.745 411.255 627.444 411.4C618.083 415.944 607.959 418.71 597.588 419.558C593.461 419.892 589.314 419.911 585.184 419.616C579.48 419.208 573.328 418.311 567.98 419.768C567.42 419.914 566.87 420.094 566.333 420.308L555.819 447.89C555.827 447.965 555.828 448.038 555.835 448.113L555.365 449.195C555.577 449.225 555.798 449.252 556.01 449.282C556.132 449.3 556.258 449.311 556.381 449.329C556.463 449.339 556.546 449.349 556.62 449.363C556.648 449.366 556.675 449.37 556.696 449.371C556.77 449.384 556.841 449.389 556.908 449.401C558.14 449.553 559.375 449.697 560.614 449.833C560.62 449.835 560.62 449.835 560.629 449.832C570.055 450.956 579.582 450.958 589.009 449.838C589.29 449.801 589.577 449.767 589.862 449.717C594.067 449.137 598.218 448.214 602.272 446.959C604.49 446.264 606.672 445.457 608.808 444.542C614.324 442.166 619.431 438.937 623.943 434.974C632.937 427.072 639.304 416.382 640.143 404.593C640.165 404.292 640.184 403.996 640.199 403.692Z" fill="#F0F0F0"/>
<path d="M639.825 403.621C631.862 416.316 620.101 426.179 606.213 431.809C603.245 433.075 600.095 433.864 596.881 434.148C593.742 434.324 590.612 433.656 587.817 432.214C585.185 430.921 582.642 429.294 579.741 428.664C578.251 428.363 576.715 428.381 575.232 428.716C573.75 429.05 572.355 429.695 571.139 430.606C568.051 432.799 565.934 435.971 563.972 439.145C561.794 442.669 559.587 446.364 556.003 448.632C555.568 448.907 556.02 449.564 556.454 449.29C562.69 445.344 564.642 437.616 569.861 432.688C572.297 430.389 575.439 428.81 578.859 429.314C581.849 429.754 584.473 431.43 587.127 432.762C589.833 434.209 592.851 434.972 595.919 434.984C599.138 434.864 602.312 434.197 605.306 433.012C612.09 430.452 618.43 426.841 624.092 422.311C630.583 417.178 636.148 410.972 640.547 403.961C640.819 403.527 640.095 403.19 639.825 403.621Z" fill="white"/>
<path d="M610.791 430.259C612.052 432.461 614.054 434.143 616.441 435.005C618.828 435.866 621.443 435.852 623.819 434.963C624.3 434.782 624.04 434.027 623.559 434.208C621.348 435.04 618.912 435.053 616.691 434.247C614.47 433.44 612.611 431.866 611.449 429.808C611.196 429.361 610.539 429.815 610.791 430.259Z" fill="white"/>
<path d="M589.066 433.045C590.381 428.028 593.539 423.69 597.911 420.898C598.344 420.621 597.892 419.964 597.459 420.24C592.916 423.154 589.639 427.674 588.282 432.899C588.153 433.397 588.938 433.54 589.066 433.045Z" fill="white"/>
<path d="M629.651 416.677C628.985 415.927 628.517 415.023 628.287 414.047C628.057 413.071 628.073 412.053 628.334 411.084C628.469 410.588 627.684 410.445 627.55 410.938C627.266 412.009 627.25 413.133 627.501 414.212C627.753 415.291 628.265 416.293 628.992 417.128C629.054 417.213 629.146 417.27 629.249 417.29C629.352 417.309 629.459 417.288 629.547 417.232C629.634 417.172 629.693 417.079 629.713 416.976C629.732 416.872 629.71 416.764 629.651 416.677Z" fill="white"/>
<path d="M672.384 308.631L645.57 353.753L646.589 354.291L637.509 371.506L635.619 370.505L629.652 380.539L631.134 381.392L621.406 398.236L619.719 397.263L532.226 544.509C529.932 548.362 526.202 551.148 521.856 552.254C517.51 553.361 512.902 552.698 509.045 550.411L346.391 453.764C342.537 451.47 339.751 447.74 338.645 443.394C337.538 439.047 338.201 434.439 340.489 430.582L480.646 194.704C482.941 190.85 486.67 188.065 491.016 186.958C495.363 185.852 499.97 186.515 503.828 188.802L666.482 285.449C670.334 287.745 673.118 291.474 674.225 295.82C675.331 300.166 674.669 304.773 672.384 308.631Z" fill="#071829"/>
<path d="M514.841 541.306L351.615 444.319C350.427 443.611 349.569 442.462 349.228 441.122C348.887 439.782 349.091 438.362 349.796 437.173L490.883 199.726C491.591 198.538 492.74 197.68 494.08 197.339C495.42 196.998 496.84 197.202 498.029 197.907L661.256 294.894C662.443 295.601 663.302 296.751 663.643 298.09C663.984 299.43 663.779 300.85 663.075 302.039L521.987 539.487C521.28 540.674 520.13 541.533 518.791 541.874C517.451 542.215 516.031 542.01 514.841 541.306Z" fill="white"/>
<path d="M581.892 242.647C582.687 242.647 583.331 242.003 583.331 241.208C583.331 240.414 582.687 239.77 581.892 239.77C581.097 239.77 580.453 240.414 580.453 241.208C580.453 242.003 581.097 242.647 581.892 242.647Z" fill="white"/>
<path d="M572.986 412.74L436.732 331.78C436.305 331.528 435.932 331.195 435.634 330.798C435.335 330.402 435.118 329.951 434.995 329.47C434.872 328.99 434.845 328.49 434.915 327.999C434.986 327.508 435.152 327.036 435.406 326.61C435.659 326.183 435.994 325.811 436.391 325.514C436.789 325.218 437.241 325.003 437.722 324.881C438.203 324.76 438.703 324.735 439.194 324.807C439.684 324.879 440.156 325.048 440.581 325.303L576.835 406.262C577.262 406.514 577.635 406.848 577.934 407.244C578.232 407.64 578.449 408.092 578.572 408.572C578.695 409.052 578.722 409.552 578.652 410.043C578.581 410.534 578.415 411.007 578.161 411.433C577.908 411.859 577.573 412.231 577.176 412.528C576.778 412.825 576.326 413.04 575.845 413.161C575.364 413.283 574.864 413.308 574.373 413.236C573.883 413.163 573.411 412.995 572.986 412.74Z" fill="#E6E6E6"/>
<path d="M518.581 400.195L473.764 373.565C473.338 373.312 472.967 372.978 472.67 372.582C472.374 372.186 472.159 371.735 472.036 371.256C471.914 370.776 471.888 370.277 471.959 369.787C472.029 369.298 472.196 368.827 472.449 368.401C472.701 367.976 473.035 367.605 473.432 367.308C473.828 367.012 474.279 366.797 474.758 366.675C475.238 366.553 475.737 366.526 476.226 366.597C476.716 366.668 477.187 366.834 477.613 367.087L522.43 393.717C522.855 393.97 523.227 394.304 523.523 394.7C523.819 395.097 524.035 395.547 524.157 396.027C524.279 396.506 524.305 397.005 524.234 397.495C524.164 397.984 523.997 398.455 523.744 398.881C523.492 399.306 523.158 399.677 522.761 399.974C522.365 400.27 521.914 400.485 521.435 400.607C520.955 400.729 520.457 400.756 519.967 400.685C519.477 400.614 519.006 400.448 518.581 400.195Z" fill="#E6E6E6"/>
<path d="M500.961 429.851L456.143 403.221C455.284 402.71 454.664 401.88 454.417 400.911C454.171 399.943 454.319 398.917 454.829 398.058C455.34 397.199 456.17 396.578 457.139 396.331C458.107 396.085 459.133 396.233 459.992 396.743L504.81 423.373C505.235 423.626 505.606 423.96 505.903 424.356C506.199 424.752 506.414 425.203 506.536 425.682C506.658 426.162 506.685 426.661 506.614 427.15C506.543 427.64 506.377 428.111 506.124 428.536C505.871 428.962 505.537 429.333 505.141 429.629C504.745 429.926 504.294 430.141 503.815 430.263C503.335 430.385 502.836 430.411 502.347 430.341C501.857 430.27 501.386 430.103 500.961 429.851Z" fill="#E6E6E6"/>
<path d="M491.934 445.04L447.116 418.41C446.69 418.158 446.317 417.824 446.02 417.428C445.722 417.031 445.506 416.58 445.383 416.1C445.26 415.62 445.233 415.121 445.304 414.63C445.375 414.14 445.541 413.668 445.794 413.242C446.047 412.816 446.382 412.444 446.779 412.148C447.176 411.851 447.628 411.636 448.108 411.514C448.588 411.393 449.088 411.367 449.578 411.439C450.068 411.511 450.54 411.678 450.965 411.932L495.783 438.562C496.21 438.814 496.584 439.147 496.882 439.544C497.18 439.94 497.397 440.392 497.52 440.872C497.644 441.352 497.671 441.852 497.6 442.343C497.53 442.834 497.363 443.307 497.11 443.733C496.857 444.16 496.521 444.532 496.124 444.828C495.726 445.125 495.274 445.34 494.793 445.461C494.312 445.583 493.812 445.608 493.321 445.536C492.831 445.463 492.359 445.295 491.934 445.04Z" fill="#E6E6E6"/>
<path d="M535.029 429.75L439.941 373.25C439.087 372.737 438.47 371.907 438.226 370.941C437.982 369.975 438.131 368.951 438.64 368.095C439.149 367.238 439.977 366.618 440.942 366.37C441.907 366.122 442.931 366.267 443.79 366.773L538.878 423.272C539.305 423.524 539.679 423.857 539.977 424.254C540.275 424.65 540.492 425.102 540.615 425.582C540.739 426.062 540.766 426.562 540.696 427.053C540.625 427.544 540.458 428.017 540.205 428.443C539.952 428.869 539.617 429.242 539.219 429.538C538.822 429.835 538.369 430.05 537.888 430.171C537.407 430.293 536.907 430.318 536.417 430.246C535.926 430.173 535.454 430.005 535.029 429.75Z" fill="#E6E6E6"/>
<path d="M516.907 501.956L500.633 492.287C499.175 491.418 498.121 490.006 497.703 488.36C497.285 486.715 497.537 484.971 498.405 483.511C499.272 482.051 500.683 480.996 502.328 480.576C503.973 480.156 505.718 480.407 507.178 481.272L523.451 490.942C524.912 491.809 525.968 493.222 526.387 494.869C526.806 496.515 526.554 498.261 525.686 499.721C524.818 501.182 523.406 502.238 521.759 502.657C520.113 503.076 518.367 502.824 516.907 501.956Z" fill="#064517"/>
<path d="M547.267 344.963C565.689 344.963 580.623 330.029 580.623 311.608C580.623 293.186 565.689 278.252 547.267 278.252C528.846 278.252 513.912 293.186 513.912 311.608C513.912 330.029 528.846 344.963 547.267 344.963Z" fill="#064517"/>
<path d="M0.392578 447.152H451.784V185.824C451.781 183.866 451.003 181.989 449.618 180.604C448.234 179.22 446.356 178.441 444.398 178.439H7.778C5.81998 178.441 3.94278 179.22 2.55823 180.604C1.17367 181.989 0.394839 183.866 0.392578 185.824V447.152Z" fill="#CACACA"/>
<path d="M437.838 188.653H14.3398V429.081H437.838V188.653Z" fill="white"/>
<path d="M6.0723e-10 440.081V472.329C-1.46004e-05 473.666 0.26329 474.989 0.774881 476.225C1.28647 477.46 2.03633 478.582 2.98164 479.527C3.92695 480.473 5.04921 481.222 6.28432 481.734C7.51944 482.246 8.84322 482.509 10.1801 482.509H176.785V546.152H174.572C174.398 546.152 174.226 546.186 174.066 546.252C173.905 546.319 173.759 546.416 173.637 546.539C173.514 546.662 173.416 546.807 173.35 546.968C173.284 547.128 173.249 547.3 173.249 547.474V551.901C173.249 552.074 173.284 552.246 173.35 552.407C173.416 552.567 173.514 552.713 173.637 552.836C173.759 552.958 173.905 553.056 174.066 553.122C174.226 553.189 174.398 553.223 174.572 553.223H277.998C278.172 553.223 278.344 553.189 278.504 553.122C278.664 553.056 278.81 552.958 278.933 552.836C279.056 552.713 279.153 552.567 279.22 552.407C279.286 552.246 279.32 552.074 279.32 551.901V547.474C279.32 547.3 279.286 547.128 279.22 546.968C279.153 546.807 279.056 546.662 278.933 546.539C278.81 546.416 278.664 546.319 278.504 546.252C278.344 546.186 278.172 546.152 277.998 546.152H275.785V482.509H442.39C443.727 482.509 445.05 482.246 446.285 481.734C447.521 481.222 448.643 480.473 449.588 479.527C450.533 478.582 451.283 477.46 451.795 476.225C452.306 474.989 452.57 473.666 452.57 472.329V440.081L6.0723e-10 440.081Z" fill="#071829"/>
<path d="M376.556 269.061H176.003C174.739 269.061 173.527 268.559 172.633 267.665C171.739 266.771 171.236 265.558 171.236 264.294C171.236 263.03 171.739 261.817 172.633 260.923C173.527 260.029 174.739 259.527 176.003 259.527H376.556C377.82 259.527 379.033 260.029 379.927 260.923C380.821 261.817 381.323 263.03 381.323 264.294C381.323 265.558 380.821 266.771 379.927 267.665C379.033 268.559 377.82 269.061 376.556 269.061Z" fill="#E6E6E6"/>
<path d="M309.264 290.58H243.297C242.032 290.58 240.82 290.078 239.926 289.184C239.032 288.29 238.529 287.078 238.529 285.813C238.529 284.549 239.032 283.336 239.926 282.442C240.82 281.548 242.032 281.046 243.297 281.046H309.264C310.528 281.046 311.741 281.548 312.635 282.442C313.529 283.336 314.031 284.549 314.031 285.813C314.031 287.078 313.529 288.29 312.635 289.184C311.741 290.078 310.528 290.58 309.264 290.58Z" fill="#E6E6E6"/>
<path d="M309.264 334.231H243.297C242.032 334.231 240.82 333.729 239.926 332.835C239.032 331.941 238.529 330.728 238.529 329.464C238.529 328.199 239.032 326.987 239.926 326.093C240.82 325.199 242.032 324.696 243.297 324.696H309.264C310.528 324.696 311.741 325.199 312.635 326.093C313.529 326.987 314.031 328.199 314.031 329.464C314.031 330.728 313.529 331.941 312.635 332.835C311.741 333.729 310.528 334.231 309.264 334.231Z" fill="#E6E6E6"/>
<path d="M309.264 356.588H243.296C242.67 356.588 242.05 356.465 241.472 356.225C240.894 355.986 240.368 355.634 239.926 355.192C239.483 354.749 239.132 354.224 238.892 353.645C238.653 353.067 238.529 352.447 238.529 351.821C238.529 351.195 238.653 350.575 238.892 349.997C239.132 349.418 239.483 348.893 239.926 348.45C240.368 348.008 240.894 347.656 241.472 347.417C242.05 347.177 242.67 347.054 243.296 347.054H309.264C309.89 347.054 310.51 347.177 311.088 347.417C311.666 347.656 312.192 348.008 312.634 348.45C313.077 348.893 313.428 349.418 313.668 349.997C313.907 350.575 314.031 351.195 314.031 351.821C314.031 352.447 313.907 353.067 313.668 353.645C313.428 354.224 313.077 354.749 312.634 355.192C312.192 355.634 311.666 355.986 311.088 356.225C310.51 356.465 309.89 356.588 309.264 356.588Z" fill="#E6E6E6"/>
<path d="M346.261 312.099H206.3C205.036 312.099 203.823 311.597 202.929 310.703C202.035 309.809 201.533 308.597 201.533 307.332C201.533 306.068 202.035 304.856 202.929 303.962C203.823 303.068 205.036 302.565 206.3 302.565H346.261C347.525 302.565 348.738 303.068 349.632 303.962C350.526 304.856 351.028 306.068 351.028 307.332C351.028 308.597 350.526 309.809 349.632 310.703C348.738 311.597 347.525 312.099 346.261 312.099Z" fill="#E6E6E6"/>
<path d="M373.217 402.363H349.264C347.115 402.363 345.053 401.509 343.533 399.989C342.012 398.469 341.158 396.407 341.158 394.257C341.158 392.107 342.012 390.045 343.533 388.525C345.053 387.005 347.115 386.151 349.264 386.151H373.217C375.367 386.151 377.429 387.005 378.949 388.525C380.469 390.045 381.323 392.107 381.323 394.257C381.323 396.407 380.469 398.469 378.949 399.989C377.429 401.509 375.367 402.363 373.217 402.363Z" fill="#064517"/>
<path d="M112.94 343.528C135.967 343.528 154.634 324.861 154.634 301.834C154.634 278.807 135.967 260.14 112.94 260.14C89.9132 260.14 71.2461 278.807 71.2461 301.834C71.2461 324.861 89.9132 343.528 112.94 343.528Z" fill="#064517"/>
<path d="M600.846 554.943H1.10393C0.811892 554.942 0.532112 554.825 0.32591 554.619C0.119707 554.412 0.00390625 554.132 0.00390625 553.84C0.00390625 553.547 0.119707 553.267 0.32591 553.061C0.532112 552.854 0.811892 552.737 1.10393 552.736H600.846C601.138 552.737 601.418 552.854 601.624 553.061C601.83 553.267 601.946 553.547 601.946 553.84C601.946 554.132 601.83 554.412 601.624 554.619C601.418 554.825 601.138 554.942 600.846 554.943Z" fill="#CACACA"/>
<path d="M225.892 183.546C226.76 183.546 227.463 182.842 227.463 181.974C227.463 181.107 226.76 180.403 225.892 180.403C225.024 180.403 224.32 181.107 224.32 181.974C224.32 182.842 225.024 183.546 225.892 183.546Z" fill="white"/>
</g>
<defs>
<clipPath id="clip0_6144_20010">
<rect width="674.753" height="554.943" fill="white"/>
</clipPath>
</defs>
</svg>
